<svg id="visual" viewBox="0 0 900 450" width="900" height="450" xmlns="http://www.w3.org/2000/svg" xmlns:xlink="http://www.w3.org/1999/xlink" version="1.1"><rect x="0" y="0" width="900" height="450" fill="#161616"></rect><defs><linearGradient id="grad1_0" x1="50%" y1="0%" x2="100%" y2="100%"><stop offset="10%" stop-color="#cccccc" stop-opacity="1"></stop><stop offset="90%" stop-color="#cccccc" stop-opacity="1"></stop></linearGradient></defs><defs><linearGradient id="grad1_1" x1="50%" y1="0%" x2="100%" y2="100%"><stop offset="10%" stop-color="#cccccc" stop-opacity="1"></stop><stop offset="90%" stop-color="#a3a3a3" stop-opacity="1"></stop></linearGradient></defs><defs><linearGradient id="grad1_2" x1="50%" y1="0%" x2="100%" y2="100%"><stop offset="10%" stop-color="#7c7c7c" stop-opacity="1"></stop><stop offset="90%" stop-color="#a3a3a3" stop-opacity="1"></stop></linearGradient></defs><defs><linearGradient id="grad1_3" x1="50%" y1="0%" x2="100%" y2="100%"><stop offset="10%" stop-color="#7c7c7c" stop-opacity="1"></stop><stop offset="90%" stop-color="#575757" stop-opacity="1"></stop></linearGradient></defs><defs><linearGradient id="grad1_4" x1="50%" y1="0%" x2="100%" y2="100%"><stop offset="10%" stop-color="#353535" stop-opacity="1"></stop><stop offset="90%" stop-color="#575757" stop-opacity="1"></stop></linearGradient></defs><defs><linearGradient id="grad1_5" x1="50%" y1="0%" x2="100%" y2="100%"><stop offset="10%" stop-color="#353535" stop-opacity="1"></stop><stop offset="90%" stop-color="#161616" stop-opacity="1"></stop></linearGradient></defs><defs><linearGradient id="grad2_0" x1="0%" y1="0%" x2="50%" y2="100%"><stop offset="10%" stop-color="#cccccc" stop-opacity="1"></stop><stop offset="90%" stop-color="#cccccc" stop-opacity="1"></stop></linearGradient></defs><defs><linearGradient id="grad2_1" x1="0%" y1="0%" x2="50%" y2="100%"><stop offset="10%" stop-color="#a3a3a3" stop-opacity="1"></stop><stop offset="90%" stop-color="#cccccc" stop-opacity="1"></stop></linearGradient></defs><defs><linearGradient id="grad2_2" x1="0%" y1="0%" x2="50%" y2="100%"><stop offset="10%" stop-color="#a3a3a3" stop-opacity="1"></stop><stop offset="90%" stop-color="#7c7c7c" stop-opacity="1"></stop></linearGradient></defs><defs><linearGradient id="grad2_3" x1="0%" y1="0%" x2="50%" y2="100%"><stop offset="10%" stop-color="#575757" stop-opacity="1"></stop><stop offset="90%" stop-color="#7c7c7c" stop-opacity="1"></stop></linearGradient></defs><defs><linearGradient id="grad2_4" x1="0%" y1="0%" x2="50%" y2="100%"><stop offset="10%" stop-color="#575757" stop-opacity="1"></stop><stop offset="90%" stop-color="#353535" stop-opacity="1"></stop></linearGradient></defs><defs><linearGradient id="grad2_5" x1="0%" y1="0%" x2="50%" y2="100%"><stop offset="10%" stop-color="#161616" stop-opacity="1"></stop><stop offset="90%" stop-color="#353535" stop-opacity="1"></stop></linearGradient></defs><g transform="translate(900, 0)"><path d="M0 292.5C-24.6 270.9 -49.3 249.3 -77.9 239.7C-106.5 230.1 -139 232.5 -158.1 217.6C-177.2 202.7 -183 170.4 -203.9 148.1C-224.8 125.8 -260.9 113.4 -278.2 90.4C-295.5 67.4 -294 33.7 -292.5 0L0 0Z" fill="#252525"></path><path d="M0 243.8C-20.5 225.7 -41.1 207.7 -64.9 199.7C-88.7 191.7 -115.8 193.8 -131.8 181.4C-147.7 168.9 -152.5 142 -169.9 123.4C-187.3 104.8 -217.4 94.5 -231.8 75.3C-246.2 56.1 -245 28.1 -243.7 0L0 0Z" fill="#464646"></path><path d="M0 195C-16.4 180.6 -32.9 166.2 -51.9 159.8C-71 153.4 -92.7 155 -105.4 145.1C-118.2 135.1 -122 113.6 -135.9 98.7C-149.9 83.9 -173.9 75.6 -185.5 60.3C-197 44.9 -196 22.5 -195 0L0 0Z" fill="#6a6a6a"></path><path d="M0 146.3C-12.3 135.4 -24.6 124.6 -38.9 119.8C-53.2 115 -69.5 116.3 -79.1 108.8C-88.6 101.4 -91.5 85.2 -101.9 74.1C-112.4 62.9 -130.4 56.7 -139.1 45.2C-147.7 33.7 -147 16.8 -146.2 0L0 0Z" fill="#909090"></path><path d="M0 97.5C-8.2 90.3 -16.4 83.1 -26 79.9C-35.5 76.7 -46.3 77.5 -52.7 72.5C-59.1 67.6 -61 56.8 -68 49.4C-74.9 41.9 -87 37.8 -92.7 30.1C-98.5 22.5 -98 11.2 -97.5 0L0 0Z" fill="#b7b7b7"></path><path d="M0 48.8C-4.1 45.1 -8.2 41.5 -13 39.9C-17.7 38.3 -23.2 38.8 -26.4 36.3C-29.5 33.8 -30.5 28.4 -34 24.7C-37.5 21 -43.5 18.9 -46.4 15.1C-49.2 11.2 -49 5.6 -48.7 0L0 0Z" fill="#cccccc"></path></g><g transform="translate(0, 450)"><path d="M0 -292.5C32.8 -291.2 65.6 -290 89 -273.9C112.3 -257.8 126.2 -226.9 152.8 -210.3C179.4 -193.8 218.7 -191.6 236.6 -171.9C254.5 -152.2 251 -115 256.8 -83.4C262.5 -51.9 277.5 -25.9 292.5 0L0 0Z" fill="#252525"></path><path d="M0 -243.7C27.4 -242.7 54.7 -241.7 74.2 -228.3C93.6 -214.8 105.2 -189.1 127.4 -175.3C149.5 -161.5 182.3 -159.7 197.2 -143.3C212.1 -126.9 209.2 -95.8 214 -69.5C218.8 -43.2 231.3 -21.6 243.8 0L0 0Z" fill="#464646"></path><path d="M0 -195C21.9 -194.2 43.8 -193.3 59.3 -182.6C74.9 -171.9 84.2 -151.3 101.9 -140.2C119.6 -129.2 145.8 -127.7 157.8 -114.6C169.7 -101.5 167.4 -76.7 171.2 -55.6C175 -34.6 185 -17.3 195 0L0 0Z" fill="#6a6a6a"></path><path d="M0 -146.2C16.4 -145.6 32.8 -145 44.5 -137C56.2 -128.9 63.1 -113.4 76.4 -105.2C89.7 -96.9 109.4 -95.8 118.3 -86C127.3 -76.1 125.5 -57.5 128.4 -41.7C131.3 -25.9 138.8 -13 146.3 0L0 0Z" fill="#909090"></path><path d="M0 -97.5C10.9 -97.1 21.9 -96.7 29.7 -91.3C37.4 -85.9 42.1 -75.6 50.9 -70.1C59.8 -64.6 72.9 -63.9 78.9 -57.3C84.8 -50.7 83.7 -38.3 85.6 -27.8C87.5 -17.3 92.5 -8.6 97.5 0L0 0Z" fill="#b7b7b7"></path><path d="M0 -48.7C5.5 -48.5 10.9 -48.3 14.8 -45.7C18.7 -43 21 -37.8 25.5 -35.1C29.9 -32.3 36.5 -31.9 39.4 -28.7C42.4 -25.4 41.8 -19.2 42.8 -13.9C43.8 -8.6 46.3 -4.3 48.8 0L0 0Z" fill="#cccccc"></path></g></svg>