<svg id="visual" viewBox="0 0 900 450" width="900" height="450" xmlns="http://www.w3.org/2000/svg" xmlns:xlink="http://www.w3.org/1999/xlink" version="1.1"><rect x="0" y="0" width="900" height="450" fill="#F28800"></rect><defs><linearGradient id="grad1_0" x1="50%" y1="0%" x2="100%" y2="100%"><stop offset="10%" stop-color="#ffffff" stop-opacity="1"></stop><stop offset="90%" stop-color="#ffffff" stop-opacity="1"></stop></linearGradient></defs><defs><linearGradient id="grad1_1" x1="50%" y1="0%" x2="100%" y2="100%"><stop offset="10%" stop-color="#ffffff" stop-opacity="1"></stop><stop offset="90%" stop-color="#f28800" stop-opacity="1"></stop></linearGradient></defs><defs><linearGradient id="grad2_0" x1="0%" y1="0%" x2="50%" y2="100%"><stop offset="10%" stop-color="#ffffff" stop-opacity="1"></stop><stop offset="90%" stop-color="#ffffff" stop-opacity="1"></stop></linearGradient></defs><defs><linearGradient id="grad2_1" x1="0%" y1="0%" x2="50%" y2="100%"><stop offset="10%" stop-color="#f28800" stop-opacity="1"></stop><stop offset="90%" stop-color="#ffffff" stop-opacity="1"></stop></linearGradient></defs><g transform="translate(900, 0)"><path d="M0 337.5C-39.5 320.3 -78.9 303 -119.4 288.3C-159.9 273.5 -201.4 261.2 -235.5 235.5C-269.5 209.8 -296.1 170.6 -311.8 129.2C-327.6 87.7 -332.5 43.8 -337.5 0L0 0Z" fill="#ffc38c"></path><path d="M0 168.8C-19.7 160.1 -39.5 151.5 -59.7 144.1C-79.9 136.7 -100.7 130.6 -117.7 117.7C-134.8 104.9 -148 85.3 -155.9 64.6C-163.8 43.8 -166.3 21.9 -168.7 0L0 0Z" fill="#ffffff"></path></g><g transform="translate(0, 450)"><path d="M0 -337.5C43 -329.7 86.1 -321.9 127.1 -306.7C168 -291.6 206.9 -269.1 238.6 -238.6C270.4 -208.2 295.1 -169.7 310.4 -128.6C325.7 -87.5 331.6 -43.7 337.5 0L0 0Z" fill="#ffc38c"></path><path d="M0 -168.7C21.5 -164.8 43 -160.9 63.5 -153.4C84 -145.8 103.4 -134.6 119.3 -119.3C135.2 -104.1 147.6 -84.8 155.2 -64.3C162.9 -43.7 165.8 -21.9 168.8 0L0 0Z" fill="#ffffff"></path></g></svg>