<svg id="visual" viewBox="0 0 450 900" width="450" height="900" xmlns="http://www.w3.org/2000/svg" xmlns:xlink="http://www.w3.org/1999/xlink" version="1.1"><rect x="0" y="0" width="450" height="900" fill="#F28800"></rect><defs><linearGradient id="grad1_0" x1="0%" y1="0%" x2="100%" y2="100%"><stop offset="30%" stop-color="#ffffff" stop-opacity="1"></stop><stop offset="70%" stop-color="#ffffff" stop-opacity="1"></stop></linearGradient></defs><defs><linearGradient id="grad1_1" x1="0%" y1="0%" x2="100%" y2="100%"><stop offset="30%" stop-color="#ffffff" stop-opacity="1"></stop><stop offset="70%" stop-color="#f28800" stop-opacity="1"></stop></linearGradient></defs><defs><linearGradient id="grad2_0" x1="0%" y1="0%" x2="100%" y2="100%"><stop offset="30%" stop-color="#ffffff" stop-opacity="1"></stop><stop offset="70%" stop-color="#ffffff" stop-opacity="1"></stop></linearGradient></defs><defs><linearGradient id="grad2_1" x1="0%" y1="0%" x2="100%" y2="100%"><stop offset="30%" stop-color="#f28800" stop-opacity="1"></stop><stop offset="70%" stop-color="#ffffff" stop-opacity="1"></stop></linearGradient></defs><g transform="translate(450, 0)"><path d="M0 427.5C-35.9 376 -71.8 324.6 -129.3 312.3C-186.9 300 -266.1 326.8 -302.3 302.3C-338.5 277.8 -331.8 202.1 -345.5 143.1C-359.2 84.2 -393.4 42.1 -427.5 0L0 0Z" fill="#ffc38c"></path><path d="M0 213.8C-18 188 -35.9 162.3 -64.7 156.1C-93.4 150 -133 163.4 -151.1 151.1C-169.3 138.9 -165.9 101 -172.8 71.6C-179.6 42.1 -196.7 21 -213.7 0L0 0Z" fill="#ffffff"></path></g><g transform="translate(0, 900)"><path d="M0 -427.5C67.1 -434.5 134.2 -441.5 163.6 -395C193 -348.4 184.8 -248.3 196.6 -196.6C208.3 -144.8 240 -141.4 281.8 -116.7C323.6 -92 375.5 -46 427.5 0L0 0Z" fill="#ffc38c"></path><path d="M0 -213.7C33.5 -217.3 67.1 -220.8 81.8 -197.5C96.5 -174.2 92.4 -124.2 98.3 -98.3C104.2 -72.4 120 -70.7 140.9 -58.4C161.8 -46 187.8 -23 213.8 0L0 0Z" fill="#ffffff"></path></g></svg>